<mxfile host="app.diagrams.net" modified="2021-12-27T01:56:10.641Z" agent="5.0 (Macintosh; Intel Mac OS X 10_15_7) AppleWebKit/537.36 (KHTML, like Gecko) Chrome/92.0.4515.159 Safari/537.36" etag="ym384sYKSXMNTLEO2Ref" version="16.1.0" type="github">
  <diagram id="ovlF77_hRMfbSDNI52pf" name="Page-1">
    <mxGraphModel dx="946" dy="623" grid="1" gridSize="10" guides="1" tooltips="1" connect="1" arrows="1" fold="1" page="1" pageScale="1" pageWidth="827" pageHeight="1169" math="0" shadow="0">
      <root>
        <mxCell id="0" />
        <mxCell id="1" parent="0" />
        <mxCell id="uWVjtR3cfbaLWsZWV4nT-2" value="项目" style="swimlane;childLayout=stackLayout;resizeParent=1;resizeParentMax=0;horizontal=1;startSize=20;horizontalStack=0;fontSize=16;" vertex="1" parent="1">
          <mxGeometry x="20" y="110" width="1050" height="660" as="geometry" />
        </mxCell>
        <mxCell id="uWVjtR3cfbaLWsZWV4nT-3" value="集团信息化项目" style="swimlane;startSize=20;horizontal=0;fontSize=16;" vertex="1" parent="uWVjtR3cfbaLWsZWV4nT-2">
          <mxGeometry y="20" width="1050" height="180" as="geometry" />
        </mxCell>
        <mxCell id="uWVjtR3cfbaLWsZWV4nT-6" value="&lt;span&gt;办公：协同办公、悦识、人力资源、费控（集团费控、海外费控）&lt;br&gt;销售：销售协同系统&lt;br&gt;研发：PLM升级&lt;br&gt;服务：维保服务平台&lt;br&gt;公共资源：云平台、数据中台、IDC数据机房、智慧园区、信息安全中心、智能运维&lt;/span&gt;" style="text;html=1;align=left;verticalAlign=middle;resizable=0;points=[];autosize=1;strokeColor=none;fillColor=none;fontSize=16;" vertex="1" parent="uWVjtR3cfbaLWsZWV4nT-3">
          <mxGeometry x="100" y="30" width="600" height="100" as="geometry" />
        </mxCell>
        <mxCell id="uWVjtR3cfbaLWsZWV4nT-4" value="应用平台" style="swimlane;startSize=20;horizontal=0;fontSize=16;" vertex="1" parent="uWVjtR3cfbaLWsZWV4nT-2">
          <mxGeometry y="200" width="1050" height="190" as="geometry" />
        </mxCell>
        <mxCell id="uWVjtR3cfbaLWsZWV4nT-7" value="移动端：协同办公、&lt;br&gt;&lt;span style=&quot;white-space: pre&quot;&gt;	&lt;/span&gt;&lt;span style=&quot;white-space: pre&quot;&gt;	&lt;/span&gt;悦识平台、&lt;br&gt;&lt;span style=&quot;white-space: pre&quot;&gt;	&lt;/span&gt;&lt;span style=&quot;white-space: pre&quot;&gt;	&lt;/span&gt;销售协同（&lt;span class=&quot;s1&quot; style=&quot;font-family: &amp;#34;songti sc&amp;#34; ; font-size: 10px&quot;&gt;产品线改造、备货变更、发货&lt;/span&gt;&lt;span class=&quot;s2&quot; style=&quot;font-size: 10px ; font-stretch: normal ; line-height: normal ; font-family: &amp;#34;times&amp;#34;&quot;&gt;/&lt;/span&gt;&lt;span class=&quot;s1&quot; style=&quot;font-family: &amp;#34;songti sc&amp;#34; ; font-size: 10px&quot;&gt;移机等流程、掌上营销、新旧客户经理关联查询、回款到期自动计提、在线阅读加密等&lt;/span&gt;&lt;span&gt;）&lt;/span&gt;&lt;br&gt;PC端：其他" style="text;html=1;align=left;verticalAlign=middle;resizable=0;points=[];autosize=1;strokeColor=none;fillColor=none;fontSize=16;" vertex="1" parent="uWVjtR3cfbaLWsZWV4nT-4">
          <mxGeometry x="100" y="30" width="800" height="80" as="geometry" />
        </mxCell>
        <mxCell id="uWVjtR3cfbaLWsZWV4nT-5" value="可整合/开发的项目" style="swimlane;startSize=20;horizontal=0;fontSize=16;" vertex="1" parent="uWVjtR3cfbaLWsZWV4nT-2">
          <mxGeometry y="390" width="1050" height="270" as="geometry" />
        </mxCell>
        <mxCell id="uWVjtR3cfbaLWsZWV4nT-8" value="可集成的系统：&lt;br&gt;&lt;br&gt;&lt;div style=&quot;text-align: left&quot;&gt;&lt;span style=&quot;font-family: &amp;#34;songti sc&amp;#34; ; font-size: 10px ; text-align: center&quot;&gt;&lt;b&gt;维保服务平台&lt;/b&gt;、&lt;/span&gt;&lt;font style=&quot;font-size: 11px&quot;&gt;安全信息中心&lt;/font&gt;&lt;/div&gt;" style="whiteSpace=wrap;html=1;fontSize=16;" vertex="1" parent="uWVjtR3cfbaLWsZWV4nT-5">
          <mxGeometry x="60" y="80" width="270" height="140" as="geometry" />
        </mxCell>
        <mxCell id="uWVjtR3cfbaLWsZWV4nT-9" value="可学习借鉴的系统：&lt;br&gt;" style="whiteSpace=wrap;html=1;fontSize=16;" vertex="1" parent="uWVjtR3cfbaLWsZWV4nT-5">
          <mxGeometry x="380" y="80" width="280" height="140" as="geometry" />
        </mxCell>
        <mxCell id="uWVjtR3cfbaLWsZWV4nT-10" value="&lt;font style=&quot;font-size: 15px&quot;&gt;面向前线业务，以解决问题为出发点进行系统开发或集成，避免重复造轮子&lt;/font&gt;&lt;font style=&quot;font-size: 12px&quot;&gt;（api集成、系统集成、开放源码、共同开发）&lt;/font&gt;" style="text;html=1;align=center;verticalAlign=middle;resizable=0;points=[];autosize=1;strokeColor=none;fillColor=none;fontSize=11;" vertex="1" parent="uWVjtR3cfbaLWsZWV4nT-5">
          <mxGeometry x="220" y="20" width="750" height="20" as="geometry" />
        </mxCell>
      </root>
    </mxGraphModel>
  </diagram>
</mxfile>
